<?xml version="1.0" encoding="utf-8"?>
<!-- Generator: Adobe Illustrator 21.1.0, SVG Export Plug-In . SVG Version: 6.00 Build 0)  -->
<!DOCTYPE svg PUBLIC "-//W3C//DTD SVG 1.1//EN" "http://www.w3.org/Graphics/SVG/1.1/DTD/svg11.dtd">

<svg version="1.1" id="Ebene_1" xmlns="http://www.w3.org/2000/svg" xmlns:xlink="http://www.w3.org/1999/xlink" x="0px" y="0px"
	width="258px" height="72px" viewBox="0 0 258 72" style="enable-background:new 0 0 258 72;" xml:space="preserve">
<style type="text/css">
<![CDATA[
	.st0{fill:#179C7D;}
	.st1{fill:#FFFFFF;}
]]>
</style>
<g>
<g>
		<path fill="#00967F" d="M2,42.3c9.3-4.8,22.9-12.5,39.1-23.8v-3.8C26.9,24,12.4,31.5,2,36.4V42.3z"/>
		<path fill="#00967F" d="M2,31c10.3-4.2,24.8-10.7,39.1-19.2V9.9C27.7,16.5,13.8,20.7,2,23.3V31z"/>
		<path fill="#00967F" d="M41,42.3V23.2c-8.9,7.5-17.7,14-25.1,19.1L41,42.3L41,42.3z"/>
		<path fill="#00967F" d="M10.9,42.3c7-4.2,15.6-9.6,24-16c2-1.5,4-3,6-4.6v-2.4C28.3,28.7,15.5,36.6,5.5,42.2L10.9,42.3L10.9,42.3z
			"/>
		<path fill="#00967F" d="M2,20.5c11.4-2,25.4-5.6,39.1-12.1V6.3C27.3,12.5,13.6,15.1,2,16V20.5z"/>
		<path fill="#00967F" d="M2,3v10.9c0.9-0.1,1.7-0.1,2.6-0.2c9.5-0.7,22.5-2.4,36.5-8.5V2.9C41,3,2,3,2,3z"/>
		<g>
			<g>
				<path fill="#FFFFFF" d="M2,14v2c11.5-0.9,25.3-3.6,39.1-9.7V5.4c-14,6.1-27,7.7-36.5,8.5C3.7,13.9,2.8,13.9,2,14z"/>
			</g>
		</g>
		<g>
			<g>
				<path fill="#FFFFFF" d="M2,23.3c11.7-2.6,25.7-6.8,39.1-13.4V8.4C27.4,14.9,13.5,18.5,2,20.5V23.3z"/>
			</g>
		</g>
		<g>
			<g>
				<path fill="#FFFFFF" d="M2,36.4C12.4,31.5,26.8,24,41.1,14.7v-2.9C26.8,20.3,12.4,26.8,2,31V36.4z"/>
			</g>
		</g>
		<g>
			<g>
				<path fill="#FFFFFF" d="M10.9,42.3h5c7.4-5.1,16.2-11.6,25.1-19.1v-1.5c-2,1.6-4.1,3.1-6.1,4.6C26.5,32.7,18,38.1,10.9,42.3z"/>
			</g>
		</g>
		<g>
			<g>
				<path fill="#FFFFFF" d="M2,42.3h3.6c10-5.7,22.9-13.5,35.4-22.9v-0.9C24.9,29.8,11.3,37.5,2,42.3L2,42.3z"/>
			</g>
		</g>
	</g>
	<g>
		<g>
			<g>
				<g>
					<defs>
						<rect id="SVGID_1_" x="54.2" y="13.7" width="188.7" height="29"/>
					</defs>
					<clipPath id="SVGID_2_">
						<use xlink:href="#SVGID_1_"  overflow="visible"/>
					</clipPath>
					<path clip-path="url(#SVGID_2_)" d="M231.6,42.3h5v-7.1c0-2.8,0-7.9,4.1-7.9c0.9,0,1.8,0.1,2.3,0.4v-5.1
						c-0.5-0.2-1.1-0.2-1.5-0.2c-3,0-5.1,3-5.3,4.8h-0.1v-4.4h-4.5V42.3L231.6,42.3z M226.5,37.1c-1.9,1-4,2-6.4,2
						c-3.1,0-5.3-1.8-5.5-4.9H228c0-6.8-2-11.7-9.2-11.7c-6,0-9,4.6-9,10.2c0,6.3,3.7,10,10.1,10c2.7,0,4.8-0.5,6.6-1.5L226.5,37.1
						L226.5,37.1z M214.6,30.7c0.2-2.6,1.6-4.5,4.5-4.5c2.8,0,3.9,2.1,4.1,4.5H214.6z M198.6,42.3h5V26.7h4.4V23h-4.4v-2.4
						c0-1.5,0.5-3,2.2-3c1.1,0,1.7,0.4,2.2,0.7l0.4-4.2c-1-0.2-2.4-0.4-3.7-0.4c-4,0-6.2,2.7-6.2,6.6V23h-3.7v3.7h3.7L198.6,42.3
						L198.6,42.3z M178.6,32.2c0-2.9,1.6-5.7,4.8-5.7c3.3,0,4.9,2.8,4.9,5.7c0,3.2-1,6.7-4.9,6.7C179.6,38.8,178.6,35.3,178.6,32.2
						 M173.3,32.8c0,5.5,3.7,10,10.1,10c6.4,0,10.1-4.4,10.1-10c0-6.4-4.4-10.2-10.1-10.2C177.7,22.5,173.3,26.4,173.3,32.8
						 M152.4,42.3h5v-9.5c0-2.5,0.8-6.4,4.4-6.4c3.2,0,3.3,3.2,3.3,5.6v10.3h5V30.1c0-4.4-2-7.6-6.6-7.6c-2.6,0-4.8,1.2-6.1,3.1
						h-0.1V14.2h-5L152.4,42.3L152.4,42.3z M129.5,42.3h5v-9.5c0-2.5,0.8-6.4,4.4-6.4c3.2,0,3.3,3.2,3.3,5.6v10.3h5V30.1
						c0-4.4-2-7.6-6.6-7.6c-2.6,0-4.8,0.9-6.3,3.1h-0.1V23h-4.8L129.5,42.3L129.5,42.3z M124.3,23h-5v9.5c0,2.5-0.8,6.4-4.4,6.4
						c-3.2,0-3.3-3.2-3.3-5.6V23h-5v12.2c0,4.4,2,7.6,6.6,7.6c2.6,0,4.8-1.2,6.3-3.1h0.1v2.6h4.8L124.3,23L124.3,23z M90,36.7
						c0-3,3.3-3.3,5.6-3.3h2.2c0,1.5-0.2,2.9-1.1,4c-0.8,1-2,1.7-3.5,1.7C91.4,39.1,90,38.4,90,36.7 M87.5,28.3
						c1.7-1.3,3.8-2.1,6-2.1c3,0,4.3,1,4.3,4.2H95c-2.1,0-4.6,0.2-6.5,1.1c-1.9,0.9-3.3,2.6-3.3,5.5c0,3.7,3.3,5.7,6.7,5.7
						c2.3,0,4.8-1.2,6-3.3H98c0,0.6,0,1.9,0.2,2.9h4.4c-0.1-1.5-0.2-2.9-0.2-4.3s-0.1-2.9-0.1-4.8v-2.5c0-5.7-2.4-8.1-8.3-8.1
						c-2.1,0-4.8,0.6-6.7,1.5L87.5,28.3z M72.4,42.3h5v-7.1c0-2.8,0-7.9,4.1-7.9c0.9,0,1.8,0.1,2.3,0.4v-5.1
						c-0.5-0.2-1.1-0.2-1.5-0.2c-3,0-5.1,3-5.3,4.8h-0.1v-4.4h-4.5V42.3z M54.2,42.3h5.3V30.8h8.9v-4.1h-8.9v-6.5h9.3v-4.1H54.2
						V42.3z"/>
				</g>
			</g>
		</g>
	</g>
</g>
<g>
	<path d="M208.5,57.5c-0.2,0-0.4,0-0.7,0.1c-0.2,0-0.4,0.1-0.7,0.3c-0.2,0.1-0.4,0.3-0.5,0.6c-0.1,0.2-0.2,0.5-0.2,0.9
		c0,0.3,0.1,0.5,0.3,0.7s0.4,0.4,0.6,0.5c0.3,0.1,0.6,0.3,0.9,0.4c0.3,0.1,0.6,0.3,1,0.4s0.7,0.3,1,0.5s0.6,0.4,0.9,0.7
		c0.3,0.3,0.5,0.6,0.6,1c0.1,0.4,0.2,0.9,0.2,1.4c0,1.4-0.5,2.4-1.4,3s-2,0.9-3.4,0.9c-0.7,0-1.2-0.1-1.6-0.1
		c-0.5-0.1-1-0.2-1.6-0.4l0.2-2.4c0.9,0.5,1.8,0.8,2.9,0.8c0.5,0,1-0.1,1.5-0.4s0.7-0.7,0.7-1.3c0-0.3-0.1-0.6-0.2-0.8
		c-0.2-0.2-0.4-0.4-0.6-0.6c-0.6-0.3-1.2-0.6-1.9-0.9c-0.4-0.2-0.7-0.3-1-0.5s-0.6-0.4-0.9-0.7c-0.3-0.3-0.5-0.6-0.6-1
		c-0.2-0.4-0.3-0.8-0.3-1.4c0-1.5,0.5-2.5,1.4-3.1s1.9-0.9,3-0.9s2.1,0.2,3,0.5l-0.2,2.2C210.3,57.7,209.4,57.5,208.5,57.5z"/>
	<path d="M223.9,68.5c-0.9,0.3-1.9,0.4-2.9,0.4c-2.1,0-3.7-0.5-5-1.6s-1.9-2.7-2-4.9c0.1-4.6,2.4-6.9,6.9-7c0.9,0,1.9,0.2,2.9,0.5
		l-0.2,2.2c-0.5-0.3-0.9-0.5-1.4-0.6c-0.4-0.1-0.9-0.1-1.4-0.1c-1.3,0-2.3,0.5-3.1,1.4s-1.2,2-1.2,3.4s0.4,2.5,1.1,3.3
		c0.7,0.9,1.8,1.3,3.2,1.4c0.5,0,1-0.1,1.6-0.2c0.5-0.1,0.9-0.2,1.2-0.4L223.9,68.5z"/>
	<path d="M230.3,55.6h2.9l5,13.1h-2.8l-1.1-3h-5.1l-1.1,3h-2.6L230.3,55.6z M231.7,58.3L231.7,58.3l-1.9,5.4h3.7L231.7,58.3z"/>
	<path d="M240.4,55.6h2.5v13.1h-2.5V55.6z"/>
</g>
</svg>
